<svg width="30" height="29" viewBox="0 0 30 29" fill="none" xmlns="http://www.w3.org/2000/svg">
<path d="M29.9497 10.9644C29.8551 10.6872 29.683 10.4437 29.4544 10.2634C29.2257 10.0832 28.9502 9.97394 28.6614 9.94893L20.138 8.69094L16.3182 0.854997C16.1956 0.598743 16.0041 0.382631 15.7656 0.231416C15.5272 0.0802009 15.2515 0 14.9701 0C14.6887 0 14.413 0.0802009 14.1745 0.231416C13.9361 0.382631 13.7446 0.598743 13.6219 0.854997L9.8021 8.67578L1.2787 9.94893C1.00147 9.98881 0.740823 10.1065 0.526354 10.2887C0.311885 10.4709 0.152177 10.7102 0.0653557 10.9796C-0.0141187 11.2428 -0.0212505 11.523 0.0447254 11.79C0.110701 12.057 0.247295 12.3008 0.439846 12.4952L6.62643 18.5579L5.12846 27.1668C5.06799 27.4524 5.09035 27.7496 5.19285 28.0226C5.29536 28.2956 5.47365 28.5329 5.70627 28.7058C5.93889 28.8787 6.21594 28.9799 6.50409 28.9973C6.79223 29.0147 7.0792 28.9475 7.33047 28.8037L14.9701 24.7569L22.6097 28.8037C22.8199 28.9237 23.0574 28.9864 23.2987 28.9856C23.616 28.9867 23.9255 28.8859 24.1825 28.6976C24.4149 28.5292 24.5948 28.2969 24.701 28.0284C24.8072 27.7598 24.8352 27.4661 24.7817 27.1819L23.2838 18.573L29.4703 12.5104C29.6866 12.325 29.8465 12.0813 29.9313 11.8077C30.0162 11.534 30.0225 11.2416 29.9497 10.9644ZM13.4721 22.0742L8.63369 24.6508L9.71223 18.285C9.75153 18.0438 9.73255 17.7964 9.6569 17.5642C9.58126 17.3319 9.4512 17.1216 9.27782 16.9513L4.78393 12.4043L11.0904 11.4797C11.333 11.4456 11.5637 11.3517 11.7622 11.2064C11.9607 11.0611 12.1209 10.8687 12.2288 10.6461L13.4721 8.02405V22.0742ZM20.6623 16.9513C20.4889 17.1216 20.3589 17.3319 20.2832 17.5642C20.2076 17.7964 20.1886 18.0438 20.2279 18.285L21.3064 24.6508L16.468 22.0742V8.02405L17.7862 10.7371C17.8942 10.9596 18.0544 11.152 18.2529 11.2973C18.4513 11.4427 18.682 11.5365 18.9247 11.5707L25.2311 12.4952L20.6623 16.9513Z" fill="url(#paint0_linear_6_15)"/>
<defs>
<linearGradient id="paint0_linear_6_15" x1="15" y1="0" x2="15" y2="29" gradientUnits="userSpaceOnUse">
<stop stop-color="#FF0F7B"/>
<stop offset="1" stop-color="#F89B29"/>
</linearGradient>
</defs>
</svg>
